# Blender v3.1.2 OBJ File: ''
# www.blender.org
mtllib pyramid.mtl
o Plane
v -0.000000 0.000000 0.707107
v 0.000000 -0.707107 0.000000
v -0.000000 0.707107 0.000000
v 0.000000 0.000000 -0.707107
v 0.700000 0.000000 0.000000
v -0.700000 -0.000000 -0.000000
vt 1.000000 1.000000
vt 1.000000 0.000000
vt 1.000000 1.000000
vt 1.000000 0.000000
vt 0.000000 1.000000
vt 0.000000 0.000000
vt 0.000000 1.000000
vt 1.000000 1.000000
vt 0.000000 0.000000
vt 0.000000 0.000000
vt 0.000000 1.000000
vt 1.000000 0.000000
vn -0.5812 -0.5754 -0.5754
vn 0.5812 -0.5754 -0.5754
vn 0.5812 0.5754 0.5754
vn 0.5812 0.5754 -0.5754
vn 0.5812 -0.5754 0.5754
vn -0.5812 0.5754 0.5754
vn -0.5812 0.5754 -0.5754
vn -0.5812 -0.5754 0.5754
usemtl None
s off
f 4/1/1 2/2/1 6/3/1
f 2/2/2 4/1/2 5/4/2
f 3/5/3 1/6/3 5/7/3
f 4/1/4 3/5/4 5/8/4
f 1/6/5 2/2/5 5/9/5
f 1/6/6 3/5/6 6/10/6
f 3/5/7 4/1/7 6/11/7
f 2/2/8 1/6/8 6/12/8
